<svg width="42" height="42" fill="none" xmlns="http://www.w3.org/2000/svg"><path d="M29.495 14.015a1 1 0 10-1.414-1.414l1.414 1.414zm-16.99 14.162a1 1 0 001.414 1.414l-1.414-1.415zM28.08 29.59a1 1 0 001.414-1.415l-1.414 1.415zM13.919 12.6a1 1 0 00-1.414 1.414l1.414-1.414zm14.162 0L12.505 28.176l1.414 1.415 15.576-15.576-1.414-1.414zm1.414 15.575L13.919 12.602l-1.414 1.414L28.08 29.59l1.414-1.415zM40 21c0 10.493-8.507 19-19 19v2c11.598 0 21-9.402 21-21h-2zM21 40C10.507 40 2 31.493 2 21H0c0 11.598 9.402 21 21 21v-2zM2 21C2 10.507 10.507 2 21 2V0C9.402 0 0 9.402 0 21h2zM21 2c10.493 0 19 8.507 19 19h2C42 9.402 32.598 0 21 0v2z" fill="#fff"/></svg>