<svg width="19" height="20" viewBox="0 0 19 20" fill="none" xmlns="http://www.w3.org/2000/svg">
<path d="M8.6638 5.15069C8.20066 6.52055 7.73753 7.83562 7.2744 9.15069C6.09083 12.5479 4.933 15.9726 3.74943 19.3699C3.56933 19.8904 3.44068 19.9726 2.92609 19.9726C2.17993 19.9726 1.43377 19.9726 0.713335 19.9726C0.121553 19.9726 -0.135743 19.5616 0.0700939 18.9589C2.38576 12.8219 4.6757 6.65753 6.96564 0.520548C7.09429 0.164384 7.32585 0 7.68607 0C8.30358 0 8.94682 0 9.56433 0C10.1047 0 10.2333 0.109589 10.4134 0.60274C12.0858 5.09589 13.7583 9.58904 15.4307 14.0822C16.0225 15.6986 16.64 17.3151 17.2318 18.9315C17.4891 19.6164 17.2575 20 16.5371 20C15.8424 20 15.1477 20 14.4272 20C13.8869 20 13.7583 19.9178 13.5782 19.3699C11.9829 14.7397 10.3877 10.137 8.81817 5.50685C8.76672 5.39726 8.71526 5.28767 8.6638 5.15069Z" fill="#FEFDFE"/>
<path d="M17.6844 3.49912C17.516 3.49912 17.3195 3.52734 17.151 3.49912C16.8423 3.44268 16.7861 3.58377 16.7861 3.86596C16.8142 4.26102 16.7861 4.6843 16.7861 5.07936C16.7861 5.2769 16.7581 5.33333 16.5616 5.33333C16.1686 5.30511 15.8037 5.33333 15.4107 5.33333C15.2423 5.33333 15.1861 5.2769 15.1861 5.10758C15.1861 4.65608 15.1861 4.20459 15.1861 3.75309C15.1861 3.52734 15.13 3.4709 14.9054 3.49912C14.4563 3.52734 14.0072 3.49912 13.5581 3.49912C13.3896 3.49912 13.3335 3.44268 13.3335 3.27337C13.3335 2.87831 13.3335 2.51146 13.3335 2.1164C13.3335 1.91887 13.3896 1.86243 13.5861 1.86243C14.0353 1.86243 14.4563 1.86243 14.9054 1.86243C15.13 1.86243 15.1861 1.77778 15.1861 1.58025C15.1581 1.15697 15.1861 0.733686 15.1861 0.282187C15.1861 0.0846561 15.2142 0 15.4388 0C15.8037 0.0282187 16.1686 0.0282187 16.5616 0C16.7581 0 16.8142 0.0564375 16.8142 0.253968C16.8142 0.310406 16.8142 0.395062 16.8142 0.451499C16.8423 0.902998 16.7861 1.3545 16.8423 1.806C17.2914 1.89065 17.7405 1.83422 18.2177 1.83422C18.2738 1.83422 18.33 1.83422 18.3861 1.83422C18.5826 1.806 18.6668 1.86243 18.6668 2.08818C18.6388 2.45503 18.6668 2.82187 18.6668 3.21693C18.6668 3.41446 18.6388 3.4709 18.4142 3.4709C18.1616 3.4709 17.9089 3.49912 17.6844 3.49912Z" fill="#FEFDFE"/>
</svg>
