<svg width="39" height="44" fill="none" xmlns="http://www.w3.org/2000/svg"><path d="M34.467 7.333h-6.733a8.789 8.789 0 00-17.335 0H3.667A3.671 3.671 0 000 11v29.333A3.671 3.671 0 003.667 44h30.8a3.671 3.671 0 003.666-3.667V11a3.671 3.671 0 00-3.666-3.667zm-15.4-5.866a7.322 7.322 0 016.157 11.301 7.276 7.276 0 00-3.303-2.092 4.4 4.4 0 10-5.708 0 7.275 7.275 0 00-3.304 2.092 7.322 7.322 0 016.158-11.301zm-2.934 5.866a2.933 2.933 0 115.867 0 2.933 2.933 0 01-5.867 0zm8.156 6.607a7.313 7.313 0 01-10.444 0 6.396 6.396 0 015.222-2.207 6.396 6.396 0 015.222 2.207zm12.378 26.393a2.202 2.202 0 01-2.2 2.2h-30.8a2.202 2.202 0 01-2.2-2.2V11a2.202 2.202 0 012.2-2.2h6.6a8.758 8.758 0 002 5.579l.01.013a8.79 8.79 0 0013.58 0l.01-.013a8.758 8.758 0 002-5.579h6.6a2.202 2.202 0 012.2 2.2v29.333z" fill="#7BBF32"/><path d="M16.45 24.727l-.373 2.288a.733.733 0 001.078.76l1.912-1.056 1.91 1.056a.733.733 0 001.08-.76l-.374-2.288 1.575-1.614a.734.734 0 00-.414-1.237l-2.147-.328-.967-2.06a.733.733 0 00-1.327 0l-.967 2.06-2.147.328a.733.733 0 00-.414 1.237l1.575 1.614zm1.594-1.788a.732.732 0 00.553-.414l.47-1 .469 1a.733.733 0 00.553.414l1.123.172-.837.857a.733.733 0 00-.198.63l.19 1.163-.945-.522a.733.733 0 00-.71 0l-.945.522.19-1.163a.733.733 0 00-.199-.63l-.836-.857 1.122-.172zM6.183 24.727l-.373 2.288a.733.733 0 001.079.76L8.8 26.719l1.911 1.056a.733.733 0 001.079-.76l-.373-2.288 1.575-1.614a.734.734 0 00-.415-1.237l-2.146-.328-.967-2.06a.733.733 0 00-1.328 0l-.967 2.06-2.146.328a.733.733 0 00-.415 1.237l1.575 1.614zm1.595-1.788a.732.732 0 00.553-.414l.469-1 .47 1a.733.733 0 00.553.414l1.122.172-.836.857a.733.733 0 00-.2.63l.19 1.163-.944-.522a.733.733 0 00-.71 0l-.944.522.19-1.163a.733.733 0 00-.2-.63l-.836-.857 1.123-.172zM26.717 24.727l-.373 2.288a.733.733 0 001.078.76l1.911-1.056 1.912 1.056a.733.733 0 001.078-.76l-.373-2.288 1.575-1.614a.733.733 0 00-.414-1.237l-2.147-.328-.967-2.06a.733.733 0 00-1.328 0l-.966 2.06-2.147.328a.733.733 0 00-.414 1.237l1.575 1.614zm1.594-1.788a.733.733 0 00.553-.414l.47-1 .469 1a.733.733 0 00.553.414l1.122.172-.836.857a.733.733 0 00-.199.63l.19 1.163-.944-.522a.735.735 0 00-.71 0l-.945.522.19-1.163a.733.733 0 00-.199-.63l-.836-.857 1.122-.172zM5.133 31.533h8.8a.733.733 0 100-1.466h-8.8a.733.733 0 100 1.466zM33 30.067H16.867a.733.733 0 100 1.466H33a.733.733 0 100-1.466zM33 33H5.133a.733.733 0 100 1.467H33A.733.733 0 0033 33zM5.133 37.4h17.6a.733.733 0 100-1.466h-17.6a.733.733 0 100 1.466zM33 35.934h-7.333a.733.733 0 100 1.466H33a.733.733 0 100-1.466zM33 38.867H5.133a.733.733 0 100 1.466H33a.733.733 0 000-1.466z" fill="#7BBF32"/></svg>