<svg width="60" height="60" viewBox="0 0 60 60" fill="none" xmlns="http://www.w3.org/2000/svg">
<rect width="60" height="60" fill="#7ECA1E"/>
<path fill-rule="evenodd" clip-rule="evenodd" d="M0 60V56.5714C0 57.4807 0.361221 58.353 1.0042 58.996C1.64718 59.6389 2.51926 60 3.42857 60H43.3226L42.4406 58.2857H3.42857C2.97391 58.2857 2.53788 58.105 2.21639 57.7835C1.8949 57.462 1.71429 57.0261 1.71429 56.5714V14.5714C1.71429 14.1168 1.8949 13.6809 2.21639 13.3594C2.53788 13.0379 2.97391 12.8571 3.42857 12.8571H6V14.5714C6 15.2534 6.27093 15.9073 6.75317 16.3895C7.2354 16.8717 7.88944 17.1429 8.57143 17.1429H38.5714C39.2534 17.1429 39.9075 16.8717 40.3897 16.3895C40.8719 15.9073 41.1429 15.2534 41.1429 14.5714V12.8571H43.7143C44.1689 12.8571 44.605 13.0379 44.9265 13.3594C45.248 13.6809 45.4286 14.1168 45.4286 14.5714V15.4286H47.1429V14.5714C47.1429 13.6621 46.7816 12.7899 46.1387 12.1469C45.4957 11.5039 44.6236 11.1429 43.7143 11.1429H41.1429V10.2857C41.1429 9.60373 40.8719 8.94987 40.3897 8.46763C39.9075 7.9854 39.2534 7.71429 38.5714 7.71429H31.6929C31.5851 5.63359 30.6831 3.67358 29.1728 2.23828C27.6626 0.802986 25.6592 0.0018201 23.5757 0H60V60H0ZM18 51.4286C18 51.6559 18.0903 51.8739 18.2511 52.0346C18.4118 52.1953 18.6298 52.2857 18.8571 52.2857H28.2857C28.513 52.2857 28.731 52.1953 28.8918 52.0346C29.0525 51.8739 29.1429 51.6559 29.1429 51.4286C29.1429 51.2012 29.0525 50.9833 28.8918 50.8225C28.731 50.6618 28.513 50.5714 28.2857 50.5714H18.8571C18.6298 50.5714 18.4118 50.6618 18.2511 50.8225C18.0903 50.9833 18 51.2012 18 51.4286ZM15.4286 48.8571H31.7143C31.9416 48.8571 32.1596 48.7668 32.3204 48.606C32.4811 48.4453 32.5714 48.2273 32.5714 48C32.5714 47.7727 32.4811 47.5547 32.3204 47.394C32.1596 47.2332 31.9416 47.1429 31.7143 47.1429H15.4286C15.2012 47.1429 14.9832 47.2332 14.8225 47.394C14.6617 47.5547 14.5714 47.7727 14.5714 48C14.5714 48.2273 14.6617 48.4453 14.8225 48.606C14.9832 48.7668 15.2012 48.8571 15.4286 48.8571ZM28.7143 23.1429C26.8392 23.1394 25.0211 23.7879 23.5714 24.9773C22.7271 24.2716 21.7485 23.7444 20.6948 23.4275C19.641 23.1105 18.534 23.0104 17.4405 23.1332C16.347 23.2561 15.2897 23.5995 14.3326 24.1423C13.3754 24.6851 12.5382 25.416 11.8715 26.2914C11.2048 27.1668 10.7224 28.1683 10.4535 29.2354C10.1847 30.3024 10.1348 31.413 10.3071 32.4999C10.4793 33.5867 10.87 34.6273 11.4556 35.5589C12.0412 36.4905 12.8096 37.2938 13.7143 37.9202V37.9286L13.8291 38.0056C13.8823 38.0399 13.938 38.0743 13.9929 38.1085L22.65 43.7143H24.4997L33.1569 38.1085C33.2117 38.0743 33.2674 38.0399 33.3206 38.0056L33.4354 37.9286V37.9202C34.842 36.9192 35.894 35.4967 36.4395 33.8588C36.9851 32.2209 36.996 30.4521 36.4706 28.8076C35.9452 27.1631 34.9107 25.728 33.5165 24.7098C32.1224 23.6916 30.4407 23.1429 28.7143 23.1429ZM60 30C60 29.5453 59.8194 29.1094 59.4979 28.7879C59.1764 28.4665 58.7404 28.2857 58.2857 28.2857H56.5714V25.7143C56.5714 25.2596 56.3908 24.8237 56.0693 24.5022C55.7478 24.1807 55.3118 24 54.8571 24H54V20.5714C54 20.1168 53.8194 19.6809 53.4979 19.3594C53.1764 19.0379 52.7404 18.8571 52.2857 18.8571H47.1429C46.6882 18.8571 46.2522 19.0379 45.9307 19.3594C45.6092 19.6809 45.4286 20.1168 45.4286 20.5714V24H44.5714C44.1168 24 43.6807 24.1807 43.3592 24.5022C43.0378 24.8237 42.8571 25.2596 42.8571 25.7143V49.7143L48 60H51.4286L56.5714 49.7143V30H58.2857V42.9429C58.0364 43.03 57.8202 43.1918 57.6668 43.4067C57.5133 43.6215 57.4301 43.8788 57.4286 44.1429V45C57.4286 45.341 57.564 45.6679 57.8051 45.909C58.0463 46.1502 58.3733 46.2857 58.7143 46.2857C59.0553 46.2857 59.3823 46.1502 59.6234 45.909C59.8645 45.6679 60 45.341 60 45V30ZM44.5714 30H54.8571V48H44.5714V30ZM46.2857 42.8571C46.2857 43.0845 46.376 43.3024 46.5368 43.4632C46.6975 43.6239 46.9155 43.7143 47.1429 43.7143C47.3702 43.7143 47.5882 43.6239 47.7489 43.4632C47.9097 43.3024 48 43.0845 48 42.8571V33.4286C48 33.2012 47.9097 32.9833 47.7489 32.8225C47.5882 32.6618 47.3702 32.5714 47.1429 32.5714C46.9155 32.5714 46.6975 32.6618 46.5368 32.8225C46.376 32.9833 46.2857 33.2012 46.2857 33.4286V42.8571ZM44.5714 25.7143H54.8571V28.2857H44.5714V25.7143ZM47.1429 20.5714H52.2857V24H47.1429V20.5714ZM52.59 54H46.8386L44.82 49.7143H54.6086L52.59 54ZM50.5714 58.2857H48.8571L47.646 55.7143H51.7826L50.5714 58.2857ZM32.3537 36.583V36.5914L24 42H23.1429L14.9563 36.6943C14.8989 36.6515 14.8406 36.6173 14.7849 36.583L14.76 36.5658V36.5571C13.9951 36.0262 13.3547 35.3355 12.8832 34.5326C12.4116 33.7298 12.1203 32.8342 12.0292 31.9076C11.9381 30.9811 12.0495 30.0456 12.3557 29.1663C12.6619 28.287 13.1556 27.485 13.8025 26.8154C14.4494 26.1458 15.2342 25.6249 16.1024 25.2886C16.9706 24.9524 17.9015 24.8089 18.8307 24.868C19.7599 24.9272 20.6651 25.1874 21.4837 25.631C22.3022 26.0746 23.0146 26.6907 23.5714 27.4369C24.1289 26.6872 24.843 26.0683 25.6642 25.6226C26.4854 25.177 27.3938 24.9155 28.3263 24.8567C29.2587 24.798 30.1928 24.9433 31.0634 25.2824C31.934 25.6214 32.7202 26.1461 33.3673 26.82C34.0145 27.4939 34.5069 28.3007 34.8104 29.1843C35.1139 30.0679 35.2211 31.0072 35.1247 31.9365C35.0282 32.8658 34.7303 33.7629 34.2517 34.5653C33.7732 35.3677 33.1255 36.0564 32.3537 36.583ZM28.0363 30.2486C27.8735 30.0918 27.6563 30.0042 27.4303 30.0042C27.2043 30.0042 26.9871 30.0918 26.8243 30.2486L23.1309 33.9342L21.1551 31.9541C20.9944 31.7934 20.7764 31.7034 20.5491 31.7034C20.3219 31.7034 20.1039 31.7934 19.9431 31.9541C19.8637 32.0326 19.8007 32.1261 19.7577 32.2291C19.7146 32.3321 19.6925 32.4426 19.6925 32.5543C19.6925 32.6659 19.7146 32.7765 19.7577 32.8795C19.8007 32.9825 19.8637 33.076 19.9431 33.1544L22.5231 35.743C22.6839 35.9037 22.9019 35.9937 23.1292 35.9937C23.3564 35.9937 23.5744 35.9037 23.7352 35.743L28.0363 31.4573C28.116 31.3781 28.1792 31.284 28.2223 31.1802C28.2654 31.0765 28.2877 30.9653 28.2877 30.853C28.2877 30.7406 28.2654 30.6294 28.2223 30.5257C28.1792 30.422 28.116 30.3278 28.0363 30.2486ZM39.4286 10.2857V14.5714C39.4286 14.7988 39.3383 15.0167 39.1775 15.1775C39.0168 15.3382 38.7988 15.4286 38.5714 15.4286H8.57143C8.3441 15.4286 8.12609 15.3382 7.96535 15.1775C7.8046 15.0167 7.71429 14.7988 7.71429 14.5714V10.2857C7.71429 10.0584 7.8046 9.84043 7.96535 9.67969C8.12609 9.51894 8.3441 9.42857 8.57143 9.42857H17.2723C17.0827 8.49491 17.103 7.53088 17.3317 6.60603C17.5604 5.68118 17.9919 4.81872 18.5948 4.08105C19.1977 3.34339 19.9571 2.74902 20.8179 2.34082C21.6788 1.93262 22.6196 1.72056 23.5723 1.72056C24.525 1.72056 25.4658 1.93262 26.3266 2.34082C27.1875 2.74902 27.9468 3.34339 28.5498 4.08105C29.1527 4.81872 29.5841 5.68118 29.8128 6.60603C30.0416 7.53088 30.0619 8.49491 29.8723 9.42857H38.5714C38.7988 9.42857 39.0168 9.51894 39.1775 9.67969C39.3383 9.84043 39.4286 10.0584 39.4286 10.2857ZM23.5714 4.28571C22.8086 4.28571 22.0628 4.51186 21.4285 4.93569C20.7942 5.35951 20.2998 5.96191 20.0079 6.66671C19.7159 7.37151 19.6396 8.14716 19.7884 8.89537C19.9372 9.64358 20.3046 10.331 20.844 10.8704C21.3835 11.4098 22.0707 11.7771 22.8189 11.9259C23.5672 12.0747 24.3427 11.9981 25.0475 11.7062C25.7523 11.4143 26.3547 10.92 26.7785 10.2857C27.2023 9.65141 27.4286 8.90573 27.4286 8.14286C27.4286 7.11988 27.0222 6.13867 26.2988 5.41532C25.5755 4.69196 24.5944 4.28571 23.5714 4.28571ZM23.5714 10.2857C23.1476 10.2857 22.7333 10.16 22.3809 9.92453C22.0285 9.68907 21.7539 9.35431 21.5917 8.96275C21.4295 8.5712 21.3871 8.14042 21.4697 7.72475C21.5524 7.30908 21.7565 6.92747 22.0562 6.62779C22.3559 6.32811 22.7377 6.1237 23.1534 6.04102C23.569 5.95833 23.9999 6.00104 24.3915 6.16323C24.783 6.32541 25.1177 6.59976 25.3531 6.95215C25.5886 7.30454 25.7143 7.71904 25.7143 8.14286C25.7143 8.71118 25.4885 9.25606 25.0867 9.65792C24.6848 10.0598 24.1397 10.2857 23.5714 10.2857ZM15.45 7.71429H8.57143C7.88944 7.71429 7.2354 7.9854 6.75317 8.46763C6.27093 8.94987 6 9.60373 6 10.2857V11.1429H3.42857C2.51926 11.1429 1.64718 11.5039 1.0042 12.1469C0.361221 12.7899 0 13.6621 0 14.5714V0H23.5714C21.4872 0.000722709 19.4828 0.801201 17.9716 2.23661C16.4604 3.67201 15.5578 5.63285 15.45 7.71429Z" fill="white"/>
</svg>
