<svg width="48" height="60" fill="none" xmlns="http://www.w3.org/2000/svg"><path d="M18.364 18.788a.879.879 0 00-.88.878v.94a.879.879 0 101.759 0v-.94a.879.879 0 00-.88-.878zM29.637 18.788a.879.879 0 00-.88.878v.94a.879.879 0 101.758 0v-.94a.879.879 0 00-.878-.878zM27.444 25.625a.878.878 0 00-1.243-.008c-.32.316-1.09.686-2.2.686-1.112 0-1.88-.37-2.202-.686a.879.879 0 10-1.234 1.25c.757.748 2.041 1.194 3.435 1.194 1.394 0 2.679-.446 3.436-1.193a.879.879 0 00.008-1.243zM19.303 15.97h-1.878a.879.879 0 100 1.757h1.878a.879.879 0 100-1.758zM30.576 15.97h-1.88a.879.879 0 100 1.757h1.88a.879.879 0 100-1.758z" fill="#7ECA1E"/><path d="M42.823 41.864l-6.335-1.948a2.024 2.024 0 00-1.116-1.925l-3.918-1.959V33.24a13.11 13.11 0 005.51-8.936h.523c1.713 0 3.182-1.273 3.345-2.898a3.24 3.24 0 00-.818-2.494 3.227 3.227 0 00-1.045-.766V8.394a6.523 6.523 0 00-6.663-6.515C30.723.712 28.399 0 25.82 0c-5.49 0-8.012 1.144-10.933 2.468-1.56.708-3.173 1.439-5.46 2.108a.879.879 0 00-.564 1.182c.027.064.42.976 1.433 2.083-.438.539-1.266 1.916-1.266 4.624v5.72c-1.011.482-1.75 1.437-1.862 2.56-.091.911.207 1.82.817 2.495a3.234 3.234 0 002.394 1.063h.656a13.106 13.106 0 005.51 8.937v2.792l-3.918 1.959a2.025 2.025 0 00-1.116 1.925l-6.335 1.948a6.482 6.482 0 00-4.6 6.227v11.03a.879.879 0 101.757 0V48.09c0-2.102 1.35-3.93 3.36-4.547l6.59-2.026 1.162 1.55-1.32 1.322a2.754 2.754 0 00-.518 3.184l2.516 5.032h-2.396v-1a.879.879 0 10-1.757 0v1H6.152a.879.879 0 00-.88.878v5.637c0 .485.394.879.88.879h9.394a.879.879 0 00.878-.88v-1.912l1.154 2.306a.879.879 0 101.572-.786l-5.97-11.94a.999.999 0 01.187-1.155l1.86-1.86a.879.879 0 00.082-1.15l-1.99-2.654a.268.268 0 01-.048-.225.268.268 0 01.143-.18l3.462-1.732 2.443 8.38a.879.879 0 101.688-.493l-.385-1.32a10.296 10.296 0 006.756 0L24 55.982l-1.897-6.504a.879.879 0 10-1.687.493l2.74 9.396a.879.879 0 001.688 0l6.28-21.535 3.462 1.731c.1.05.132.134.143.18.011.047.02.137-.047.226l-1.991 2.655a.88.88 0 00.081 1.149l1.861 1.86c.305.305.38.769.188 1.154l-5.97 11.94a.879.879 0 101.571.787l5.97-11.94a2.754 2.754 0 00-.516-3.183l-1.322-1.322 1.163-1.55 6.59 2.025a4.733 4.733 0 013.36 4.548V59.12a.879.879 0 101.757 0V48.09a6.482 6.482 0 00-4.6-6.227zM14.666 58.242H7.03v-3.879h2.94v.06a.879.879 0 101.757 0v-.06h2.94v3.879zm.947-54.173c2.848-1.291 5.097-2.311 10.207-2.311 3.242 0 6.14 1.357 6.74 3.156a.879.879 0 101.667-.555c-.05-.152-.11-.3-.179-.447a4.765 4.765 0 013.164 4.482v9.454h-1c-.551 0-1-.448-1-1v-.939c0-4.075-2.95-7.071-3.076-7.197a.88.88 0 00-.886-.217c-4.879 1.541-11.758 2.84-16.823.277-1.802-.912-2.866-2.07-3.426-2.845 1.866-.613 3.312-1.269 4.612-1.858zM29.697 36.45l-1.679 5.755a8.517 8.517 0 01-8.036 0l-1.679-5.755v-2.18A13.012 13.012 0 0024 35.575c2.04 0 3.973-.47 5.697-1.307v2.181zM24 33.818c-6.25 0-11.333-5.084-11.333-11.333a.879.879 0 10-1.758 0v.06h-.53a1.473 1.473 0 01-1.462-1.624c.074-.737.775-1.315 1.596-1.315h1.275a2.76 2.76 0 002.758-2.758v-3.317a.879.879 0 10-1.758 0v3.317c0 .552-.449 1-1 1h-1v-5.383c0-2.046.55-3.062.804-3.423.537.424 1.166.843 1.903 1.227 1.992 1.038 4.363 1.613 7.046 1.709 3.146.113 6.741-.439 10.693-1.638.697.845 2.22 2.986 2.22 5.569v.94a2.76 2.76 0 002.758 2.757h1.41a1.473 1.473 0 011.46 1.624c-.073.738-.774 1.315-1.595 1.315h-.397v-.051a.879.879 0 00-1.758 0C35.329 28.737 30.245 33.817 24 33.817z" fill="#7ECA1E"/><path d="M41.848 53.075h-1.47v-1.47a.879.879 0 10-1.757 0v1.47h-1.47a.879.879 0 100 1.758h1.47v1.47a.879.879 0 101.758 0v-1.47h1.47a.879.879 0 100-1.758z" fill="#7ECA1E"/></svg>