<svg width="60" height="60" viewBox="0 0 60 60" fill="none" xmlns="http://www.w3.org/2000/svg">
<rect width="60" height="60" fill="#7ECA1E"/>
<path fill-rule="evenodd" clip-rule="evenodd" d="M27.4286 30C27.4286 29.4914 27.5794 28.9944 27.862 28.5716C28.1445 28.1487 28.5461 27.8191 29.016 27.6244C29.4858 27.4298 30.0029 27.3787 30.5017 27.478C31.0005 27.5772 31.4587 27.8223 31.8183 28.1819C32.1779 28.5415 32.4229 28.9994 32.5221 29.4982C32.6213 29.997 32.5704 30.5141 32.3757 30.984C32.1811 31.4538 31.8515 31.8557 31.4286 32.1383C31.0057 32.4208 30.5086 32.5714 30 32.5714C29.318 32.5714 28.664 32.3003 28.1817 31.8181C27.6995 31.3358 27.4286 30.682 27.4286 30ZM59.1429 30C58.9156 30 58.6975 30.0904 58.5368 30.2511C58.376 30.4119 58.2857 30.6298 58.2857 30.8571H58.26C58.1255 35.3304 56.9312 39.708 54.7755 43.6297C52.6197 47.5515 49.5639 50.9054 45.8594 53.4162C42.1548 55.9269 37.9072 57.5228 33.4659 58.0723C29.0245 58.6217 24.5161 58.1092 20.3113 56.5769C16.1066 55.0446 12.3256 52.5363 9.27908 49.2581C6.23258 45.9799 4.00763 42.0253 2.7871 37.7197C1.56658 33.4141 1.38533 28.8802 2.25829 24.4909C3.13125 20.1017 5.03348 15.9822 7.80859 12.4713C7.50485 11.8805 7.27125 11.2563 7.11258 10.6113C2.51211 16.0231 -0.00951413 22.8971 2.69766e-05 30V0H29.9743C26.7114 0.00104798 23.4708 0.536799 20.3812 1.5858C20.9209 1.97264 21.4159 2.41807 21.8572 2.9142C26.611 1.48232 31.6584 1.32906 36.4904 2.46973C41.3225 3.61039 45.7684 6.00473 49.38 9.41141L44.52 14.2713C41.808 11.7486 38.4846 9.97709 34.8782 9.13225C31.2719 8.28742 27.5075 8.39836 23.9572 9.4541C23.8849 10.1178 23.7353 10.7708 23.5115 11.3998C26.8695 10.2157 30.4869 9.96983 33.9743 10.6888C37.4617 11.4077 40.687 13.0644 43.3029 15.4801L38.46 20.3316C36.3209 18.4484 33.6159 17.3306 30.7713 17.1546C27.9268 16.9785 25.1046 17.7539 22.7495 19.359C20.3945 20.964 18.6406 23.3075 17.7644 26.0194C16.8882 28.7313 16.9394 31.6576 17.91 34.3372C18.2246 34.3027 18.5408 34.2855 18.8572 34.2857C19.152 34.2857 19.4435 34.3027 19.7297 34.3284C18.7518 32.0157 18.5843 29.4404 19.2545 27.0205C19.9246 24.6006 21.3931 22.4781 23.4215 20.9979C25.4499 19.5177 27.919 18.7668 30.4281 18.8668C32.9371 18.9667 35.3387 19.9118 37.2429 21.5487L32.3658 26.4258C31.475 25.8305 30.3948 25.5874 29.3349 25.7436C28.275 25.8998 27.311 26.4443 26.6298 27.2712C25.9487 28.0981 25.5991 29.1487 25.6488 30.2189C25.6985 31.2891 26.144 32.3025 26.8989 33.0628C27.6537 33.823 28.6641 34.2757 29.7339 34.333C30.8038 34.3903 31.8567 34.0478 32.6884 33.3725C33.5202 32.6972 34.0714 31.7372 34.2351 30.6784C34.3987 29.6197 34.1633 28.5378 33.5743 27.6429L52.9029 8.30566C53.0625 8.14507 53.1521 7.92776 53.1521 7.70131C53.1521 7.47487 53.0625 7.25756 52.9029 7.09696C52.741 6.93637 52.5223 6.84626 52.2943 6.84626C52.0663 6.84626 51.8476 6.93637 51.6858 7.09696L50.5972 8.19434C45.0428 2.93414 37.6842 0.0017099 30.0343 0H60V30.8571C60 30.6298 59.9098 30.4119 59.749 30.2511C59.5883 30.0904 59.3702 30 59.1429 30ZM10.9012 39.6772C11.1636 39.0268 11.5044 38.4107 11.916 37.8428C10.608 34.8325 10.0737 31.5427 10.3617 28.2732C10.6497 25.0036 11.751 21.8582 13.5652 19.1229L12.3652 17.8372C10.1709 21.0057 8.87595 24.7097 8.61817 28.5552C8.3604 32.4008 9.14937 36.2441 10.9012 39.6772ZM20.2003 12.2227L20.1857 12.2143C20.993 11.1717 21.4303 9.89003 21.4286 8.57143C21.4302 7.62065 21.2059 6.68299 20.774 5.83594C20.3422 4.98888 19.7153 4.25656 18.9449 3.69936C18.1745 3.14216 17.2827 2.77617 16.343 2.63128C15.4033 2.48638 14.4427 2.56683 13.5402 2.86607C12.6377 3.16532 11.8193 3.67463 11.1524 4.35226C10.4854 5.02989 9.98905 5.85629 9.7042 6.76339C9.41934 7.6705 9.35416 8.63236 9.51398 9.56962C9.6738 10.5069 10.0541 11.393 10.6234 12.1544L10.6072 12.1628L14.5715 17.1429H16.2857L20.2003 12.2227ZM18.8572 36.8571C17.7442 36.8557 16.6528 37.1642 15.7053 37.7482C14.7578 38.3322 13.9917 39.1686 13.4929 40.1635C12.994 41.1584 12.7821 42.2725 12.8808 43.3811C12.9796 44.4897 13.3851 45.5491 14.052 46.4402L14.0357 46.4485L18 51.4286H19.7143L23.6315 46.5084L23.6143 46.5C24.2971 45.6128 24.7176 44.5518 24.8281 43.4376C24.9385 42.3235 24.7345 41.201 24.2392 40.197C23.7439 39.1929 22.9771 38.3477 22.0258 37.7574C21.0745 37.1671 19.9767 36.8552 18.8572 36.8571ZM24.8229 49.0028L24.7972 49.0287L23.4943 50.417C28.0638 51.8753 32.9911 51.7536 37.483 50.0713C41.9748 48.389 45.7699 45.2441 48.2572 41.1429H47.5457L46.7658 40.3112C44.5538 43.9519 41.2136 46.7711 37.253 48.3398C33.2924 49.9086 28.9279 50.1413 24.8229 49.0028ZM40.7657 32.8112C40.4019 34.2308 39.7602 35.5646 38.8777 36.7345C37.9951 37.9045 36.8894 38.8876 35.6243 39.6274C34.3592 40.3671 32.96 40.8487 31.5076 41.0441C30.0552 41.2395 28.5785 41.1449 27.1629 40.7658C27.3115 41.3665 27.3948 41.9816 27.4114 42.6002C30.3348 43.1931 33.3733 42.7511 36.0066 41.35C38.6399 39.9489 40.7041 37.676 41.8457 34.9202C41.3901 34.2705 41.0267 33.5606 40.7657 32.8112ZM48.8572 24C47.7451 24.0008 46.6551 24.3105 45.7089 24.8948C44.7627 25.4791 43.9974 26.3149 43.4987 27.3089C42.9999 28.3028 42.7873 29.4161 42.8844 30.524C42.9815 31.6318 43.3845 32.691 44.0486 33.583L44.0315 33.5914L48 38.5714H49.7143L53.6314 33.6512L53.6144 33.6429C54.2972 32.7556 54.7176 31.6946 54.8281 30.5805C54.9385 29.4664 54.7345 28.3439 54.2392 27.3398C53.7439 26.3358 52.977 25.4906 52.0257 24.9003C51.0744 24.3099 49.9767 23.998 48.8572 24ZM52.2857 32.5714L48.8572 36.8571L45.4286 32.5714L45.4372 32.5631C44.9568 31.927 44.6633 31.1691 44.5898 30.3754C44.5162 29.5817 44.6655 28.7833 45.0207 28.0698C45.376 27.3562 45.9233 26.7559 46.601 26.3362C47.2787 25.9166 48.0601 25.6942 48.8572 25.6942C49.6543 25.6942 50.4356 25.9166 51.1133 26.3362C51.7911 26.7559 52.3383 27.3562 52.6936 28.0698C53.0489 28.7833 53.1981 29.5817 53.1246 30.3754C53.051 31.1691 52.7576 31.927 52.2772 32.5631L52.2857 32.5714ZM50.5715 29.1429H49.7143V28.2857C49.7143 28.0584 49.6241 27.8404 49.4633 27.6797C49.3026 27.5189 49.0845 27.4286 48.8572 27.4286C48.6298 27.4286 48.4118 27.5189 48.251 27.6797C48.0903 27.8404 48 28.0584 48 28.2857V29.1429H47.1429C46.9156 29.1429 46.6975 29.2332 46.5368 29.394C46.376 29.5547 46.2857 29.7727 46.2857 30C46.2857 30.2273 46.376 30.4453 46.5368 30.606C46.6975 30.7668 46.9156 30.8571 47.1429 30.8571H48V31.7143C48 31.9416 48.0903 32.1596 48.251 32.3203C48.4118 32.4811 48.6298 32.5714 48.8572 32.5714C49.0845 32.5714 49.3026 32.4811 49.4633 32.3203C49.6241 32.1596 49.7143 31.9416 49.7143 31.7143V30.8571H50.5715C50.7988 30.8571 51.0168 30.7668 51.1776 30.606C51.3383 30.4453 51.4286 30.2273 51.4286 30C51.4286 29.7727 51.3383 29.5547 51.1776 29.394C51.0168 29.2332 50.7988 29.1429 50.5715 29.1429ZM22.2857 45.4286L18.8572 49.7143L15.4286 45.4286L15.4389 45.4202C14.9582 44.7842 14.6645 44.0264 14.5907 43.2326C14.5169 42.4387 14.666 41.6402 15.0213 40.9265C15.3765 40.2128 15.9238 39.6123 16.6016 39.1925C17.2794 38.7728 18.0608 38.5505 18.858 38.5505C19.6552 38.5505 20.4367 38.7728 21.1145 39.1925C21.7923 39.6123 22.3396 40.2128 22.6948 40.9265C23.05 41.6402 23.1991 42.4387 23.1254 43.2326C23.0516 44.0264 22.7578 44.7842 22.2772 45.4202L22.2857 45.4286ZM20.5715 42H19.7143V41.1429C19.7143 40.9155 19.624 40.6976 19.4633 40.5368C19.3025 40.3761 19.0845 40.2857 18.8572 40.2857C18.6298 40.2857 18.4118 40.3761 18.2511 40.5368C18.0903 40.6976 18 40.9155 18 41.1429V42H17.1429C16.9156 42 16.6976 42.0904 16.5368 42.2511C16.3761 42.4119 16.2857 42.6298 16.2857 42.8571C16.2857 43.0845 16.3761 43.3024 16.5368 43.4632C16.6976 43.6239 16.9156 43.7143 17.1429 43.7143H18V44.5714C18 44.7988 18.0903 45.0167 18.2511 45.1775C18.4118 45.3382 18.6298 45.4286 18.8572 45.4286C19.0845 45.4286 19.3025 45.3382 19.4633 45.1775C19.624 45.0167 19.7143 44.7988 19.7143 44.5714V43.7143H20.5715C20.7988 43.7143 21.0168 43.6239 21.1775 43.4632C21.3383 43.3024 21.4286 43.0845 21.4286 42.8571C21.4286 42.6298 21.3383 42.4119 21.1775 42.2511C21.0168 42.0904 20.7988 42 20.5715 42ZM15.4286 15.4286L12 11.1429L12.0103 11.1345C11.5294 10.4985 11.2353 9.74077 11.1614 8.94685C11.0874 8.15293 11.2364 7.35424 11.5915 6.64035C11.9467 5.92646 12.494 5.32584 13.1719 4.90597C13.8497 4.4861 14.6312 4.26353 15.4286 4.26353C16.226 4.26353 17.0075 4.4861 17.6853 4.90597C18.3632 5.32584 18.9105 5.92646 19.2657 6.64035C19.6208 7.35424 19.7698 8.15293 19.6958 8.94685C19.6219 9.74077 19.3278 10.4985 18.8469 11.1345L18.8572 11.1429L15.4286 15.4286ZM17.1429 7.71429H16.2857V6.85714C16.2857 6.62981 16.1954 6.41186 16.0347 6.25112C15.8739 6.09037 15.6559 6 15.4286 6C15.2013 6 14.9833 6.09037 14.8225 6.25112C14.6618 6.41186 14.5715 6.62981 14.5715 6.85714V7.71429H13.7143C13.487 7.71429 13.269 7.80466 13.1082 7.9654C12.9475 8.12615 12.8572 8.3441 12.8572 8.57143C12.8572 8.79876 12.9475 9.01671 13.1082 9.17746C13.269 9.3382 13.487 9.42857 13.7143 9.42857H14.5715V10.2857C14.5715 10.513 14.6618 10.731 14.8225 10.8917C14.9833 11.0525 15.2013 11.1429 15.4286 11.1429C15.6559 11.1429 15.8739 11.0525 16.0347 10.8917C16.1954 10.731 16.2857 10.513 16.2857 10.2857V9.42857H17.1429C17.3702 9.42857 17.5882 9.3382 17.749 9.17746C17.9097 9.01671 18 8.79876 18 8.57143C18 8.3441 17.9097 8.12615 17.749 7.9654C17.5882 7.80466 17.3702 7.71429 17.1429 7.71429ZM30 60C37.7819 59.9996 45.2589 56.9745 50.852 51.5638C56.445 46.1531 59.7161 38.7804 59.9743 31.0028C59.987 30.955 59.9956 30.9064 60 30.8571V60H2.69766e-05V30C2.69766e-05 37.9565 3.16075 45.5869 8.78684 51.213C14.4129 56.8391 22.0435 60 30 60Z" fill="white"/>
</svg>
