<svg width="81" height="80" fill="none" xmlns="http://www.w3.org/2000/svg"><mask id="a" maskUnits="userSpaceOnUse" x="0" y="0" width="81" height="80"><path fill-rule="evenodd" clip-rule="evenodd" d="M.333 40c0-22.091 17.91-40 40-40 22.092 0 40 17.909 40 40s-17.908 40-40 40c-22.09 0-40-17.909-40-40z" fill="#fff"/></mask><g mask="url(#a)"><path fill-rule="evenodd" clip-rule="evenodd" d="M40.332 18.667c-5.79 0-6.518.025-8.793.129-2.271.104-3.821.463-5.178.99-1.403.546-2.593 1.275-3.779 2.46-1.187 1.187-1.916 2.377-2.462 3.78-.53 1.356-.89 2.907-.991 5.177C19.027 33.48 19 34.206 19 40c0 5.794.026 6.519.13 8.795.104 2.27.463 3.821.99 5.177.546 1.404 1.274 2.594 2.46 3.78a10.445 10.445 0 003.779 2.462c1.357.527 2.908.887 5.178.991 2.276.104 3.002.129 8.796.129s6.52-.026 8.795-.129c2.27-.104 3.823-.464 5.18-.991a10.437 10.437 0 003.777-2.462c1.186-1.186 1.915-2.376 2.462-3.78.524-1.356.884-2.907.991-5.177.102-2.276.129-3 .129-8.795 0-5.794-.027-6.52-.129-8.796-.107-2.271-.467-3.822-.991-5.178-.547-1.403-1.276-2.593-2.462-3.78a10.425 10.425 0 00-3.778-2.46c-1.36-.527-2.911-.886-5.182-.99-2.276-.104-3-.13-8.793-.13zm-1.91 3.844h1.913c5.697 0 6.372.02 8.621.123 2.08.095 3.21.442 3.961.735.996.386 1.706.848 2.452 1.595s1.209 1.458 1.596 2.454c.292.75.64 1.88.735 3.96.102 2.248.124 2.924.124 8.617 0 5.694-.022 6.37-.124 8.618-.095 2.08-.443 3.21-.735 3.96-.387.996-.85 1.705-1.596 2.451-.747.747-1.456 1.209-2.452 1.596-.751.293-1.88.64-3.96.735-2.25.102-2.925.124-8.621.124-5.697 0-6.372-.022-8.62-.124-2.08-.096-3.21-.444-3.962-.736-.996-.387-1.707-.849-2.454-1.596-.746-.746-1.209-1.456-1.596-2.452-.292-.75-.64-1.88-.735-3.96-.102-2.248-.122-2.924-.122-8.621 0-5.697.02-6.369.122-8.618.095-2.08.443-3.209.735-3.96.387-.996.85-1.707 1.596-2.454.747-.747 1.458-1.209 2.454-1.597.752-.293 1.881-.64 3.961-.735 1.968-.089 2.73-.116 6.707-.12v.005zm10.741 6.101a2.56 2.56 0 115.119.001 2.56 2.56 0 01-5.119 0zm-8.828.433c-6.05 0-10.955 4.905-10.955 10.955s4.905 10.954 10.956 10.954c6.05 0 10.953-4.903 10.953-10.954 0-6.05-4.904-10.955-10.954-10.955zM47.447 40a7.111 7.111 0 10-14.223 0 7.111 7.111 0 0014.223 0z" fill="#7ECA1E"/></g><rect x=".833" y=".5" width="79" height="79" rx="4.5" stroke="#7ECA1E"/></svg>