<svg width="70" height="84" viewBox="0 0 70 84" fill="none" xmlns="http://www.w3.org/2000/svg">
<path d="M10.2513 59.397C-3.41709 45.8091 -3.41709 23.7788 10.2513 10.1909C23.9196 -3.39697 46.0804 -3.39697 59.7487 10.1909C73.4171 23.7788 73.4171 45.8091 59.7487 59.397L35 84L10.2513 59.397Z" fill="#FEE600"/>
<path d="M19.5701 45.228L24.0672 49.7788L34.5499 39.1286L45.4126 50L49.9731 45.5124L39.237 34.7991L41.2956 32.8081V28.5417L42.594 27.4356V30.7855L44.2725 32.1444L49.2763 27.1512L50.8915 28.3837C51.8416 24.9074 46.3627 16.9751 41.8339 21.3679L36.5767 26.5823L37.6535 27.8781L34.9616 30.5011L32.3647 27.9413L33.7265 26.7088L27.9626 21.1467C23.6238 17.5756 19.1583 23.0112 19 28.3205L20.5835 26.9932L25.429 32.2076L27.1708 30.7539V27.562L28.2476 28.3837V32.5553L30.3695 34.6727L19.5701 45.228Z" fill="#2B2D33"/>
</svg>
