<svg width="74" height="74" fill="none" xmlns="http://www.w3.org/2000/svg"><path d="M50.008 46.105c-.798 0-1.446.648-1.446 1.446v9.972c0 3.985-3.241 7.227-7.226 7.227H25.73c-.798 0-1.445.647-1.445 1.444l-.002 2.874-3.45-3.45a1.446 1.446 0 00-1.325-.868h-9.392c-3.985 0-7.226-3.242-7.226-7.227V35.266c0-3.985 3.241-7.227 7.226-7.227h14.598a1.445 1.445 0 000-2.89H10.117C4.54 25.148 0 29.686 0 35.265v22.257c0 5.58 4.539 10.118 10.117 10.118h8.651l5.937 5.936a1.445 1.445 0 002.467-1.021l.003-4.915h14.16c5.58 0 10.118-4.539 10.118-10.118v-9.972c0-.799-.647-1.446-1.445-1.446z" fill="#7ECA1E"/><path d="M52.993 0h-3.658C37.752 0 28.328 9.424 28.328 21.007c0 11.583 9.424 21.007 21.007 21.007h3.658c1.808 0 3.597-.23 5.332-.684l5.403 5.401a1.445 1.445 0 002.467-1.022v-8.362a21.208 21.208 0 005.522-6.808A20.78 20.78 0 0074 21.007C74 9.424 64.576 0 52.993 0zM63.88 35.487c-.362.273-.575.701-.575 1.155v5.579l-3.537-3.535a1.446 1.446 0 00-1.446-.36c-1.72.53-3.513.797-5.329.797h-3.658c-9.99 0-18.116-8.126-18.116-18.116S39.346 2.891 49.335 2.891h3.658c9.99 0 18.116 8.127 18.116 18.116 0 5.742-2.634 11.02-7.229 14.48z" fill="#7ECA1E"/><path d="M57.673 15.814A6.133 6.133 0 0052 10.141a6.072 6.072 0 00-4.605 1.63 6.14 6.14 0 00-1.945 4.474 1.445 1.445 0 002.89 0c0-.904.365-1.743 1.027-2.36a3.23 3.23 0 015.423 2.129 3.214 3.214 0 01-2.511 3.382 2.735 2.735 0 00-2.155 2.68v3.473a1.445 1.445 0 002.89 0v-3.357c2.913-.703 4.867-3.368 4.66-6.378zM52.59 30.245a1.456 1.456 0 00-1.021-.424c-.38 0-.753.155-1.022.424a1.456 1.456 0 00-.423 1.022c0 .381.154.754.423 1.023.269.269.642.422 1.022.422s.753-.153 1.022-.422a1.46 1.46 0 00.423-1.023c0-.38-.155-.753-.423-1.022zM39.746 44.805H9.25a1.445 1.445 0 000 2.89h30.496a1.445 1.445 0 000-2.89zM40.768 53.322a1.456 1.456 0 00-1.022-.424c-.38 0-.753.155-1.022.424a1.455 1.455 0 00-.423 1.022c0 .38.154.753.423 1.022.27.268.642.423 1.022.423s.753-.155 1.022-.423c.269-.27.423-.64.423-1.022 0-.38-.154-.753-.423-1.022zM34.061 52.898H9.25a1.445 1.445 0 000 2.891h24.811a1.445 1.445 0 100-2.89zM30.352 36.71H9.25a1.445 1.445 0 000 2.892h21.102a1.445 1.445 0 000-2.891z" fill="#7ECA1E"/></svg>