<svg width="374" height="374" fill="none" xmlns="http://www.w3.org/2000/svg"><mask id="a" maskUnits="userSpaceOnUse" x="0" y="0" width="374" height="374"><path fill="#fff" d="M0 0h374v373.765H0z"/></mask><g mask="url(#a)"><path fill="none" d="M0 0h374v373.765H0z"/><circle opacity=".2" cx="187" cy="187" r="150" fill="#fff"/><path d="M339.397 35.15c-.463 1.37-.926 2.686-1.389 4-1.184 3.398-2.342 6.823-3.525 10.22-.18.52-.309.603-.824.603h-2.212c-.592 0-.849-.411-.644-1.014 2.316-6.137 4.606-12.302 6.896-18.439.129-.356.36-.52.72-.52h1.879c.54 0 .669.11.849.603l5.017 13.48c.592 1.616 1.209 3.232 1.801 4.849.257.684.026 1.068-.695 1.068h-2.109c-.541 0-.669-.082-.849-.63-1.596-4.63-3.191-9.233-4.76-13.863a4.572 4.572 0 01-.155-.356zM348.418 33.5c-.169 0-.365.027-.534 0-.308-.057-.364.084-.364.366.028.395 0 .818 0 1.213 0 .198-.029.254-.225.254-.393-.028-.758 0-1.151 0-.168 0-.224-.056-.224-.225v-1.355c0-.226-.057-.282-.281-.254-.449.028-.898 0-1.348 0-.168 0-.224-.056-.224-.226v-1.157c0-.197.056-.254.253-.254h1.319c.224 0 .281-.084.281-.282-.029-.423 0-.846 0-1.298 0-.197.028-.282.252-.282.365.028.73.028 1.123 0 .196 0 .253.056.253.254v.197c.028.452-.028.904.028 1.355.449.085.898.028 1.375.028h.169c.196-.028.28.028.28.254-.028.367 0 .734 0 1.129 0 .197-.028.254-.252.254-.253 0-.506.028-.73.028z" fill="#FEFDFE"/></g></svg>