<svg width="70" height="70" fill="none" xmlns="http://www.w3.org/2000/svg"><g clip-path="url(#clip0)" fill="#8CD14D"><path d="M69.915 39.022A8.167 8.167 0 0063 32.106v-2.122c0-5.851-4.448-10.616-9.916-10.616-5.311 0-9.757 4.62-9.917 10.3h.068l-.068.01V52.67c0 7.35-5.495 13.318-12.25 13.318s-12.25-5.976-12.25-13.318v-1.992c1.692 0 3.5-1.226 3.5-4.666v-2.934C29.654 41.163 35 34.734 35 27.445v-2.433h-2.333l-.049-15.184a5.84 5.84 0 00-4.8-5.71 3.481 3.481 0 10-.079 2.378 3.5 3.5 0 012.542 3.34l.053 15.176H28v2.466a9.277 9.277 0 01-6.716 8.705 10.608 10.608 0 01-6.416 0 9.272 9.272 0 01-6.701-8.704v-2.467h-3.5V9.846a3.5 3.5 0 012.59-3.365 3.516 3.516 0 10-.073-2.37 5.833 5.833 0 00-4.85 5.735v15.166H0v2.427c0 7.297 5.35 13.729 12.833 15.639v2.934c0 3.44 1.808 4.666 3.5 4.666v1.992c0 8.633 6.542 15.652 14.583 15.652 8.042 0 14.583-7.027 14.583-15.652V29.735c.117-4.428 3.521-8.03 7.584-8.03 4.18 0 7.583 3.714 7.583 8.283v2.117a8.166 8.166 0 109.25 6.917zM24.5 6.346a1.167 1.167 0 110-2.334 1.167 1.167 0 010 2.334zm-14-2.333a1.167 1.167 0 110 2.333 1.167 1.167 0 010-2.333zM2.333 27.439v-.093h3.5v.133a11.592 11.592 0 008.328 10.923c2.55.807 5.287.807 7.837 0a11.594 11.594 0 008.335-10.924v-.133h2.333v.094c0 6.49-5.002 12.2-11.9 13.582-1.62.324-3.278.406-4.922.242a15.253 15.253 0 01-1.61-.244c-6.898-1.38-11.9-7.09-11.9-13.58zm14 20.906c-1.05 0-1.167-1.633-1.167-2.333v-2.476c.094.012.19.017.284.026.117.013.233.022.35.033.552.049 1.108.081 1.67.082h.058c.56 0 1.115-.033 1.663-.082.117-.01.24-.02.36-.033.093-.01.189-.014.28-.026v2.476c0 .7-.116 2.333-1.166 2.333h-2.332zm45.5-2.333a5.833 5.833 0 115.833-5.833 5.84 5.84 0 01-5.834 5.833z"/><path d="M61.833 36.679a3.5 3.5 0 100 7 3.5 3.5 0 000-7zm0 4.666a1.167 1.167 0 110-2.333 1.167 1.167 0 010 2.333z"/></g><defs><clipPath id="clip0"><path fill="#fff" d="M0 0h70v70H0z"/></clipPath></defs></svg>