<svg width="180" height="180" viewBox="0 0 180 180" fill="none" xmlns="http://www.w3.org/2000/svg">
<rect x="0.5" y="0.5" width="179" height="179" rx="7.5" fill="white" stroke="#E1E1E3"/>
<path d="M114.412 71.25C114.515 71.2508 114.613 71.2922 114.686 71.3653C114.758 71.4384 114.799 71.5373 114.8 71.6406V108.359C114.799 108.463 114.758 108.562 114.686 108.635C114.613 108.708 114.515 108.749 114.412 108.75H65.5875C65.485 108.749 65.3869 108.708 65.3144 108.635C65.2419 108.562 65.2008 108.463 65.2 108.359V71.6406C65.2008 71.5373 65.2419 71.4384 65.3144 71.3653C65.3869 71.2922 65.485 71.2508 65.5875 71.25H114.412ZM114.412 65H65.5875C64.7223 64.9996 63.8655 65.1711 63.0661 65.5047C62.2667 65.8382 61.5403 66.3274 60.9285 66.9441C60.3167 67.5608 59.8315 68.293 59.5006 69.0989C59.1697 69.9047 58.9996 70.7685 59 71.6406V108.359C58.9996 109.232 59.1697 110.095 59.5006 110.901C59.8315 111.707 60.3167 112.439 60.9285 113.056C61.5403 113.673 62.2667 114.162 63.0661 114.495C63.8655 114.829 64.7223 115 65.5875 115H114.412C115.278 115 116.134 114.829 116.934 114.495C117.733 114.162 118.46 113.673 119.071 113.056C119.683 112.439 120.168 111.707 120.499 110.901C120.83 110.095 121 109.232 121 108.359V71.6406C121 70.7685 120.83 69.9047 120.499 69.0989C120.168 68.293 119.683 67.5608 119.071 66.9441C118.46 66.3274 117.733 65.8382 116.934 65.5047C116.134 65.1711 115.278 64.9996 114.412 65Z" fill="#E1E1E3"/>
<path d="M76.05 79.6875C76.5405 79.6875 77.02 79.8341 77.4278 80.1088C77.8356 80.3835 78.1535 80.774 78.3412 81.2308C78.5289 81.6876 78.578 82.1903 78.4823 82.6752C78.3867 83.1602 78.1505 83.6056 77.8036 83.9553C77.4568 84.3049 77.0149 84.543 76.5338 84.6395C76.0528 84.7359 75.5541 84.6864 75.1009 84.4972C74.6478 84.308 74.2605 83.9875 73.988 83.5764C73.7154 83.1653 73.57 82.682 73.57 82.1875C73.57 81.5245 73.8313 80.8886 74.2964 80.4197C74.7615 79.9509 75.3923 79.6875 76.05 79.6875ZM76.05 74.375C74.5172 74.375 73.0188 74.8332 71.7443 75.6916C70.4698 76.5501 69.4765 77.7702 68.8899 79.1978C68.3034 80.6253 68.1499 82.1962 68.4489 83.7116C68.7479 85.2271 69.4861 86.6192 70.5699 87.7118C71.6538 88.8044 73.0347 89.5484 74.538 89.8499C76.0414 90.1513 77.5997 89.9966 79.0158 89.4053C80.4319 88.814 81.6423 87.8127 82.4939 86.5279C83.3455 85.2431 83.8 83.7327 83.8 82.1875C83.8 80.1155 82.9835 78.1284 81.5301 76.6632C80.0767 75.1981 78.1054 74.375 76.05 74.375Z" fill="#E1E1E3"/>
<path d="M111.7 76.6469L93.1 95.4L86.9 89.15L70.5537 105.625H78.4463L86.9 97.1L93.1 103.35L111.7 84.6031V76.6469Z" fill="#E1E1E3"/>
</svg>
