<svg width="40" height="40" fill="none" xmlns="http://www.w3.org/2000/svg"><rect width="40" height="40" rx="2" fill="#7F4DA0"/><path d="M20 1c11.046 0 20 8.552 20 19.102s-8.954 19.102-20 19.102S0 30.652 0 20.102 8.954 1 20 1z" fill="#7F4DA0"/><path d="M25.328 17.681c-.097-.755-.34-1.347-.771-1.872-.56-.676-1.276-1.08-2.336-1.321-.69-.16-.97-.142-1.22.076-.232.204-.277.614-.1.879.125.192.27.261.67.336.535.094.904.216 1.24.4.713.393 1.045 1.008 1.08 2.004.017.467.06.611.23.777.317.303.882.244 1.12-.119.089-.136.102-.196.111-.513a4.83 4.83 0 00-.024-.647z" fill="#fff"/><path d="M28.12 18.532c-.14-2.312-1.087-4.173-2.782-5.482-.955-.735-2.109-1.241-3.374-1.487-.463-.088-1.317-.16-1.463-.119a.895.895 0 00-.42.31c-.093.14-.114.453-.035.634.127.303.363.41 1.023.465 1.019.085 2.069.427 2.863.932a5.823 5.823 0 012.092 2.29c.403.796.65 1.942.643 2.969-.002.37.058.58.214.734.236.236.58.287.884.13.336-.169.415-.465.356-1.376zM28.904 26.167c-.039-.11-.13-.28-.196-.377-.414-.596-2.635-2.257-3.745-2.8-.633-.311-1.102-.415-1.45-.317-.374.1-.571.266-1.198 1.01-.252.299-.512.578-.58.622-.171.113-.506.204-.742.204-.548-.003-1.542-.342-2.307-.788-.594-.345-1.355-.964-1.94-1.576-.688-.719-1.158-1.353-1.528-2.069-.48-.92-.601-1.482-.4-1.893.048-.104.114-.213.143-.248.03-.031.338-.273.68-.537.67-.508.778-.625.902-.973.158-.443.115-.895-.128-1.35a18.7 18.7 0 00-1.03-1.586c-.47-.64-1.638-2.009-1.87-2.194-.42-.327-.959-.383-1.553-.163-.627.232-1.801 1.136-2.303 1.767-.453.572-.627.977-.653 1.51-.023.44.016.622.259 1.184C11.165 20 14 23.52 17.895 26.314c2.035 1.46 4.145 2.572 6.333 3.331 1.277.443 1.831.465 2.484.1.276-.156.959-.825 1.34-1.311.63-.81.862-1.184.928-1.482.046-.204.01-.56-.076-.785z" fill="#fff"/><path d="M30.963 19.064a10.122 10.122 0 00-.762-3.578c-.474-1.176-.955-1.944-1.862-2.983-.858-.973-1.524-1.53-2.58-2.148-1.475-.862-3.27-1.433-5.28-1.673-.686-.084-.84-.078-1.051.056-.408.254-.402.888.006 1.138.136.08.256.108.804.177a14.9 14.9 0 012.026.377c2.52.658 4.457 2.003 5.752 3.998 1.084 1.664 1.534 3.328 1.47 5.452-.022.718-.006.845.109 1.017.22.322.8.386 1.098.119.186-.163.22-.285.257-.9.018-.32.021-.794.013-1.052z" fill="#fff"/></svg>