<svg width="80" height="80" fill="none" xmlns="http://www.w3.org/2000/svg"><path d="M42.093 53.127s.77-.084 1.164-.5c.361-.381.349-1.1.349-1.1s-.049-3.358 1.54-3.853c1.565-.488 3.574 3.247 5.707 4.682 1.611 1.086 2.834.849 2.834.849l5.7-.078s2.98-.18 1.566-2.48c-.117-.19-.824-1.703-4.236-4.813-3.575-3.255-3.095-2.728 1.208-8.36 2.621-3.428 3.669-5.522 3.341-6.417-.31-.856-2.239-.629-2.239-.629l-6.415.04s-.476-.064-.828.142c-.345.203-.568.676-.568.676s-1.014 2.653-2.368 4.91c-2.857 4.761-3.999 5.013-4.466 4.718-1.087-.69-.816-2.77-.816-4.246 0-4.615.713-6.539-1.388-7.037-.697-.166-1.21-.274-2.994-.293-2.29-.022-4.226.009-5.324.535-.73.35-1.294 1.133-.95 1.178.424.055 1.384.254 1.893.934.658.879.635 2.85.635 2.85s.377 5.432-.883 6.106c-.864.463-2.05-.482-4.597-4.802-1.305-2.212-2.29-4.658-2.29-4.658s-.19-.457-.53-.703c-.41-.297-.985-.389-.985-.389l-6.095.04s-.916.024-1.252.415c-.299.346-.023 1.065-.023 1.065S23.555 42.87 28.96 48.395c4.956 5.064 10.582 4.732 10.582 4.732h2.55z" fill="#7ECA1E"/><rect x=".5" y=".5" width="79" height="79" rx="4.5" stroke="#7ECA1E"/></svg>