<svg width="40" height="40" fill="none" xmlns="http://www.w3.org/2000/svg"><rect width="40" height="40" rx="2" fill="#25D366"/><path d="M20 39.204c11.046 0 20-8.552 20-19.102S31.046 1 20 1 0 9.552 0 20.102s8.954 19.102 20 19.102z" fill="#25D366"/><path fill-rule="evenodd" clip-rule="evenodd" d="M20.66 30.73h-.006c-1.99-.001-3.946-.478-5.683-1.383l-6.305 1.58 1.688-5.887a10.949 10.949 0 01-1.588-5.678C8.77 13.099 14.104 8.004 20.66 8.004c3.181.001 6.167 1.184 8.413 3.331 2.245 2.147 3.48 5 3.48 8.036-.003 6.261-5.336 11.356-11.893 11.358zm-5.397-3.439l.361.204a10.224 10.224 0 005.031 1.316h.004c5.448 0 9.883-4.235 9.885-9.44 0-2.523-1.026-4.895-2.893-6.68-1.866-1.784-4.348-2.767-6.988-2.768-5.452 0-9.886 4.235-9.889 9.44 0 1.784.522 3.521 1.512 5.024l.235.357-.999 3.484 3.741-.937zm10.98-5.475c.208.096.348.16.408.256.074.118.074.686-.174 1.35-.247.662-1.434 1.267-2.006 1.349-.511.073-1.16.103-1.871-.113-.432-.13-.985-.305-1.694-.598-2.786-1.148-4.669-3.727-5.024-4.215l-.052-.07-.003-.003c-.157-.2-1.21-1.543-1.21-2.933 0-1.307.672-1.992.981-2.308l.058-.06c.273-.284.595-.355.793-.355a12.366 12.366 0 01.636.011c.173 0 .389-.002.602.486l.328.762c.256.595.538 1.25.588 1.346.074.142.124.308.025.497l-.042.081c-.074.145-.13.252-.255.393-.05.055-.101.114-.153.174a4.795 4.795 0 01-.293.323c-.149.141-.304.295-.13.579.173.284.77 1.213 1.653 1.966.95.81 1.775 1.151 2.193 1.324.082.034.148.061.196.085.297.142.47.118.644-.071.173-.19.743-.829.941-1.113.198-.284.396-.237.669-.142.272.095 1.733.781 2.03.923l.163.076z" fill="#FDFDFD"/></svg>