<svg width="40" height="40" fill="none" xmlns="http://www.w3.org/2000/svg"><path d="M37.976 40H2.024A2.005 2.005 0 010 37.976V2.024C0 .891.89 0 2.024 0h35.952C39.109 0 40 .89 40 2.024v35.952C40 39.069 39.069 40 37.976 40z" fill="#7ECA1E"/><path d="M20 12.834c-.729 2.024-1.457 3.968-2.186 5.91-1.863 5.021-3.684 10.082-5.547 15.102-.283.77-.486.89-1.295.89H7.49c-.931 0-1.336-.606-1.012-1.497 3.643-9.069 7.247-18.178 10.85-27.247.202-.526.567-.77 1.134-.77h2.955c.85 0 1.053.163 1.336.891l7.895 19.92c.93 2.388 1.903 4.777 2.834 7.165.405 1.013.04 1.58-1.093 1.58h-3.32c-.85 0-1.053-.122-1.336-.932-2.51-6.842-5.02-13.644-7.49-20.486a6.587 6.587 0 01-.243-.526zM33.846 10.162c-.243 0-.526.04-.769 0-.445-.081-.526.121-.526.526.04.567 0 1.174 0 1.741 0 .284-.04.364-.324.364-.567-.04-1.093 0-1.66 0-.243 0-.324-.08-.324-.323v-1.944c0-.323-.08-.405-.405-.364-.648.04-1.295 0-1.943 0-.243 0-.324-.081-.324-.324v-1.66c0-.283.081-.364.364-.364h1.903c.324 0 .405-.122.405-.405-.04-.607 0-1.215 0-1.862 0-.284.04-.405.365-.405.526.04 1.052.04 1.619 0 .283 0 .364.08.364.364v.284c.04.647-.04 1.295.04 1.943.648.121 1.296.04 1.985.04h.242c.284-.04.405.04.405.365-.04.526 0 1.052 0 1.62 0 .283-.04.364-.364.364-.364 0-.729.04-1.053.04z" fill="#FEFDFE"/></svg>