<svg width="50" height="50" viewBox="0 0 50 50" fill="none" xmlns="http://www.w3.org/2000/svg">
<path d="M47.4696 50H2.53036C1.11336 50 0 48.8866 0 47.4696V2.53036C0 1.11336 1.11336 0 2.53036 0H47.4696C48.8866 0 50 1.11336 50 2.53036V47.4696C50 48.836 48.836 50 47.4696 50Z" fill="#FEFDFE"/>
<path d="M24.9997 16.0425C24.0888 18.5729 23.1778 21.002 22.2669 23.4312C19.939 29.7065 17.6616 36.0324 15.3337 42.3077C14.9794 43.2692 14.7264 43.421 13.7143 43.421C12.2466 43.421 10.779 43.421 9.36203 43.421C8.19807 43.421 7.69199 42.6619 8.09685 41.5486C12.6515 30.2125 17.1556 18.8259 21.6596 7.48986C21.9126 6.83196 22.3681 6.52832 23.0766 6.52832C24.2912 6.52832 25.5564 6.52832 26.7709 6.52832C27.8337 6.52832 28.0867 6.73075 28.441 7.64168C31.7305 15.9413 35.0199 24.2409 38.3094 32.5405C39.4734 35.5263 40.6879 38.5121 41.8519 41.498C42.358 42.7631 41.9025 43.4716 40.4855 43.4716C39.1191 43.4716 37.7527 43.4716 36.3357 43.4716C35.273 43.4716 35.0199 43.3198 34.6657 42.3077C31.528 33.755 28.3904 25.253 25.3033 16.7004C25.2021 16.498 25.1009 16.2955 24.9997 16.0425Z" fill="#7ECA1E"/>
<path d="M42.308 12.7023C42.0044 12.7023 41.6501 12.7529 41.3465 12.7023C40.7898 12.6011 40.6886 12.8541 40.6886 13.3602C40.7392 14.0687 40.6886 14.8278 40.6886 15.5363C40.6886 15.8906 40.638 15.9918 40.2837 15.9918C39.5752 15.9412 38.9173 15.9918 38.2088 15.9918C37.9052 15.9918 37.8039 15.8906 37.8039 15.5869C37.8039 14.7772 37.8039 13.9675 37.8039 13.1578C37.8039 12.7529 37.7027 12.6517 37.2979 12.7023C36.4882 12.7529 35.6784 12.7023 34.8687 12.7023C34.5651 12.7023 34.4639 12.6011 34.4639 12.2974C34.4639 11.5889 34.4639 10.9311 34.4639 10.2225C34.4639 9.8683 34.5651 9.76708 34.9193 9.76708C35.7291 9.76708 36.4882 9.76708 37.2979 9.76708C37.7027 9.76708 37.8039 9.61526 37.8039 9.26101C37.7533 8.5019 37.8039 7.74279 37.8039 6.93307C37.8039 6.57882 37.8546 6.427 38.2594 6.427C38.9173 6.47761 39.5752 6.47761 40.2837 6.427C40.638 6.427 40.7392 6.52822 40.7392 6.88247C40.7392 6.98368 40.7392 7.1355 40.7392 7.23672C40.7898 8.04644 40.6886 8.85615 40.7898 9.66587C41.5995 9.81769 42.4092 9.71648 43.2695 9.71648C43.3707 9.71648 43.472 9.71648 43.5732 9.71648C43.9274 9.66587 44.0793 9.76708 44.0793 10.1719C44.0286 10.8298 44.0793 11.4877 44.0793 12.1962C44.0793 12.5505 44.0286 12.6517 43.6238 12.6517C43.1683 12.6517 42.7129 12.7023 42.308 12.7023Z" fill="#7ECA1E"/>
</svg>
