<svg xmlns="http://www.w3.org/2000/svg" xmlns:xlink="http://www.w3.org/1999/xlink" width="0" height="0" style="position:absolute">

		<symbol id="icon-phone" fill="none">
			<path d="M7.524 3.309l-1.88-2.134a.49.49 0 00-.691-.027L3.467 2.457c-1.88 1.657.576 5.203 2.466 7.348 1.879 2.132 5.114 5.046 6.995 3.39l1.485-1.309a.49.49 0 00.06-.69l-1.88-2.133a.49.49 0 00-.691-.027l-1.485 1.309S9.744 10.3 7.82 8.156C5.9 6.014 5.978 5.307 5.978 5.307l1.486-1.309a.49.49 0 00.06-.69z" stroke-linecap="round" stroke-linejoin="round"/>
		</symbol>

		<symbol id="icon-time" fill="none">
			<circle cx="8" cy="8" r="7" /><path d="M8 3.692v4.846l3.23 2.693" stroke-linecap="round" stroke-linejoin="round"/>
		</symbol>

		<symbol id="icon-pin" fill="none">
			<path d="M16.385 8.456C16.385 14.94 8.692 21 8.692 21S1 14.94 1 8.456C1 4.338 4.444 1 8.692 1c4.249 0 7.693 3.338 7.693 7.456z" stroke-linejoin="round"/><circle cx="8.5" cy="8.5" r="3"/>
		</symbol>

		<symbol id="icon-vk" fill="none">
			<path d="M42.093 53.127s.77-.084 1.164-.5c.361-.381.349-1.1.349-1.1s-.049-3.358 1.54-3.853c1.565-.488 3.574 3.247 5.707 4.682 1.611 1.086 2.834.849 2.834.849l5.7-.078s2.98-.18 1.566-2.48c-.117-.19-.824-1.703-4.236-4.813-3.575-3.255-3.095-2.728 1.208-8.36 2.621-3.428 3.669-5.522 3.341-6.417-.31-.856-2.239-.629-2.239-.629l-6.415.04s-.476-.064-.828.142c-.345.203-.568.676-.568.676s-1.014 2.653-2.368 4.91c-2.857 4.761-3.999 5.013-4.466 4.718-1.087-.69-.816-2.77-.816-4.246 0-4.615.713-6.539-1.388-7.037-.697-.166-1.21-.274-2.994-.293-2.29-.022-4.226.009-5.324.535-.73.35-1.294 1.133-.95 1.178.424.055 1.384.254 1.893.934.658.879.635 2.85.635 2.85s.377 5.432-.883 6.106c-.864.463-2.05-.482-4.597-4.802-1.305-2.212-2.29-4.658-2.29-4.658s-.19-.457-.53-.703c-.41-.297-.985-.389-.985-.389l-6.095.04s-.916.024-1.252.415c-.299.346-.023 1.065-.023 1.065S23.555 42.87 28.96 48.395c4.956 5.064 10.582 4.732 10.582 4.732h2.55z" fill="#7ECA1E"/><rect x=".5" y=".5" width="79" height="79" rx="4.5" stroke="#7ECA1E"/>
		</symbol>

		<symbol id="icon-inst" fill="none">
			<mask id="a" maskUnits="userSpaceOnUse" x="0" y="0" width="81" height="80"><path fill-rule="evenodd" clip-rule="evenodd" d="M.333 40c0-22.091 17.91-40 40-40 22.092 0 40 17.909 40 40s-17.908 40-40 40c-22.09 0-40-17.909-40-40z" fill="#fff"/></mask><g mask="url(#a)"><path fill-rule="evenodd" clip-rule="evenodd" d="M40.332 18.667c-5.79 0-6.518.025-8.793.129-2.271.104-3.821.463-5.178.99-1.403.546-2.593 1.275-3.779 2.46-1.187 1.187-1.916 2.377-2.462 3.78-.53 1.356-.89 2.907-.991 5.177C19.027 33.48 19 34.206 19 40c0 5.794.026 6.519.13 8.795.104 2.27.463 3.821.99 5.177.546 1.404 1.274 2.594 2.46 3.78a10.445 10.445 0 003.779 2.462c1.357.527 2.908.887 5.178.991 2.276.104 3.002.129 8.796.129s6.52-.026 8.795-.129c2.27-.104 3.823-.464 5.18-.991a10.437 10.437 0 003.777-2.462c1.186-1.186 1.915-2.376 2.462-3.78.524-1.356.884-2.907.991-5.177.102-2.276.129-3 .129-8.795 0-5.794-.027-6.52-.129-8.796-.107-2.271-.467-3.822-.991-5.178-.547-1.403-1.276-2.593-2.462-3.78a10.425 10.425 0 00-3.778-2.46c-1.36-.527-2.911-.886-5.182-.99-2.276-.104-3-.13-8.793-.13zm-1.91 3.844h1.913c5.697 0 6.372.02 8.621.123 2.08.095 3.21.442 3.961.735.996.386 1.706.848 2.452 1.595s1.209 1.458 1.596 2.454c.292.75.64 1.88.735 3.96.102 2.248.124 2.924.124 8.617 0 5.694-.022 6.37-.124 8.618-.095 2.08-.443 3.21-.735 3.96-.387.996-.85 1.705-1.596 2.451-.747.747-1.456 1.209-2.452 1.596-.751.293-1.88.64-3.96.735-2.25.102-2.925.124-8.621.124-5.697 0-6.372-.022-8.62-.124-2.08-.096-3.21-.444-3.962-.736-.996-.387-1.707-.849-2.454-1.596-.746-.746-1.209-1.456-1.596-2.452-.292-.75-.64-1.88-.735-3.96-.102-2.248-.122-2.924-.122-8.621 0-5.697.02-6.369.122-8.618.095-2.08.443-3.209.735-3.96.387-.996.85-1.707 1.596-2.454.747-.747 1.458-1.209 2.454-1.597.752-.293 1.881-.64 3.961-.735 1.968-.089 2.73-.116 6.707-.12v.005zm10.741 6.101a2.56 2.56 0 115.119.001 2.56 2.56 0 01-5.119 0zm-8.828.433c-6.05 0-10.955 4.905-10.955 10.955s4.905 10.954 10.956 10.954c6.05 0 10.953-4.903 10.953-10.954 0-6.05-4.904-10.955-10.954-10.955zM47.447 40a7.111 7.111 0 10-14.223 0 7.111 7.111 0 0014.223 0z" fill="#7ECA1E"/></g><rect x=".833" y=".5" width="79" height="79" rx="4.5" stroke="#7ECA1E"/>
		</symbol>

		<symbol id="icon-vk-white" fill="none">
			<path d="M42.093 53.127s.77-.084 1.164-.5c.361-.381.349-1.1.349-1.1s-.049-3.358 1.54-3.853c1.565-.488 3.574 3.247 5.707 4.682 1.611 1.086 2.834.849 2.834.849l5.7-.078s2.98-.18 1.566-2.48c-.117-.19-.824-1.703-4.236-4.813-3.575-3.255-3.095-2.728 1.208-8.36 2.621-3.428 3.669-5.522 3.341-6.417-.31-.856-2.239-.629-2.239-.629l-6.415.04s-.476-.064-.828.142c-.345.203-.568.676-.568.676s-1.014 2.653-2.368 4.91c-2.857 4.761-3.999 5.013-4.466 4.718-1.087-.69-.816-2.77-.816-4.246 0-4.615.713-6.539-1.388-7.037-.697-.166-1.21-.274-2.994-.293-2.29-.022-4.226.009-5.324.535-.73.35-1.294 1.133-.95 1.178.424.055 1.384.254 1.893.934.658.879.635 2.85.635 2.85s.377 5.432-.883 6.106c-.864.463-2.05-.482-4.597-4.802-1.305-2.212-2.29-4.658-2.29-4.658s-.19-.457-.53-.703c-.41-.297-.985-.389-.985-.389l-6.095.04s-.916.024-1.252.415c-.299.346-.023 1.065-.023 1.065S23.555 42.87 28.96 48.395c4.956 5.064 10.582 4.732 10.582 4.732h2.55z" fill="#CCF894"/><rect x=".5" y=".5" width="79" height="79" rx="4.5" stroke="#CCF894"/>
		</symbol>

		<symbol id="icon-inst-white" fill="none">
			<mask id="a" maskUnits="userSpaceOnUse" x="0" y="0" width="81" height="80"><path fill-rule="evenodd" clip-rule="evenodd" d="M.333 40c0-22.091 17.91-40 40-40 22.092 0 40 17.909 40 40s-17.908 40-40 40c-22.09 0-40-17.909-40-40z" fill="#fff"/></mask><g mask="url(#a)"><path fill-rule="evenodd" clip-rule="evenodd" d="M40.332 18.667c-5.79 0-6.518.025-8.793.129-2.271.104-3.821.463-5.178.99-1.403.546-2.593 1.275-3.779 2.46-1.187 1.187-1.916 2.377-2.462 3.78-.53 1.356-.89 2.907-.991 5.177C19.027 33.48 19 34.206 19 40c0 5.794.026 6.519.13 8.795.104 2.27.463 3.821.99 5.177.546 1.404 1.274 2.594 2.46 3.78a10.445 10.445 0 003.779 2.462c1.357.527 2.908.887 5.178.991 2.276.104 3.002.129 8.796.129s6.52-.026 8.795-.129c2.27-.104 3.823-.464 5.18-.991a10.437 10.437 0 003.777-2.462c1.186-1.186 1.915-2.376 2.462-3.78.524-1.356.884-2.907.991-5.177.102-2.276.129-3 .129-8.795 0-5.794-.027-6.52-.129-8.796-.107-2.271-.467-3.822-.991-5.178-.547-1.403-1.276-2.593-2.462-3.78a10.425 10.425 0 00-3.778-2.46c-1.36-.527-2.911-.886-5.182-.99-2.276-.104-3-.13-8.793-.13zm-1.91 3.844h1.913c5.697 0 6.372.02 8.621.123 2.08.095 3.21.442 3.961.735.996.386 1.706.848 2.452 1.595s1.209 1.458 1.596 2.454c.292.75.64 1.88.735 3.96.102 2.248.124 2.924.124 8.617 0 5.694-.022 6.37-.124 8.618-.095 2.08-.443 3.21-.735 3.96-.387.996-.85 1.705-1.596 2.451-.747.747-1.456 1.209-2.452 1.596-.751.293-1.88.64-3.96.735-2.25.102-2.925.124-8.621.124-5.697 0-6.372-.022-8.62-.124-2.08-.096-3.21-.444-3.962-.736-.996-.387-1.707-.849-2.454-1.596-.746-.746-1.209-1.456-1.596-2.452-.292-.75-.64-1.88-.735-3.96-.102-2.248-.122-2.924-.122-8.621 0-5.697.02-6.369.122-8.618.095-2.08.443-3.209.735-3.96.387-.996.85-1.707 1.596-2.454.747-.747 1.458-1.209 2.454-1.597.752-.293 1.881-.64 3.961-.735 1.968-.089 2.73-.116 6.707-.12v.005zm10.741 6.101a2.56 2.56 0 115.119.001 2.56 2.56 0 01-5.119 0zm-8.828.433c-6.05 0-10.955 4.905-10.955 10.955s4.905 10.954 10.956 10.954c6.05 0 10.953-4.903 10.953-10.954 0-6.05-4.904-10.955-10.954-10.955zM47.447 40a7.111 7.111 0 10-14.223 0 7.111 7.111 0 0014.223 0z" fill="#CCF894"/></g><rect x=".833" y=".5" width="79" height="79" rx="4.5" stroke="#CCF894"/>
		</symbol>

		<symbol id="icon-star-f" fill="none">
			<path d="M5.48 1.486a.787.787 0 011.454 0l.86 2.07c.113.273.37.46.664.483l2.23.18c.698.055.981.929.449 1.386L9.438 7.063a.79.79 0 00-.254.782l.52 2.18c.162.683-.58 1.223-1.178.857L6.617 9.714a.787.787 0 00-.821 0l-1.909 1.168c-.598.366-1.34-.174-1.177-.857l.52-2.18a.79.79 0 00-.255-.782L1.276 5.605c-.532-.457-.249-1.33.45-1.387l2.23-.179a.788.788 0 00.664-.483l.86-2.07z" fill="#7ECA1E" stroke="#7ECA1E"/>
		</symbol>

		<symbol id="icon-star-t" fill="none">
			<path d="M5.96 1.486a.787.787 0 011.454 0l.86 2.07c.113.273.37.46.664.483l2.23.18c.698.055.981.929.45 1.385l-1.7 1.458a.79.79 0 00-.253.783l.519 2.18c.162.683-.58 1.223-1.177.857l-1.91-1.168a.787.787 0 00-.82 0l-1.91 1.168c-.598.366-1.34-.174-1.177-.857l.52-2.18a.79.79 0 00-.255-.783L1.757 5.604c-.533-.456-.25-1.33.45-1.386l2.229-.179a.788.788 0 00.664-.484l.86-2.069z" stroke="#7ECA1E"/>
		</symbol>

		<symbol id="icon-arrow-left" fill="none">
			<circle r="19.5" transform="matrix(-1 0 0 1 20 20)" fill="#fff" stroke="#EFEFEF"/><path d="M22 14l-5.646 5.646a.5.5 0 000 .708L22 26" stroke="#7ECA1E" stroke-width="2"/>
		</symbol>

		<symbol id="icon-arrow-right" fill="none">
			<circle r="19.5" transform="matrix(1 0 0 -1 20 20)" fill="#fff" stroke="#EFEFEF"/><path d="M18 26l5.646-5.646a.5.5 0 000-.708L18 14" stroke="#7ECA1E" stroke-width="2"/>
		</symbol>

		<symbol id="icon-close">
			<path d="M29.495 14.015a1 1 0 10-1.414-1.414l1.414 1.414zm-16.99 14.162a1 1 0 001.414 1.414l-1.414-1.415zM28.08 29.59a1 1 0 001.414-1.415l-1.414 1.415zM13.919 12.6a1 1 0 00-1.414 1.414l1.414-1.414zm14.162 0L12.505 28.176l1.414 1.415 15.576-15.576-1.414-1.414zm1.414 15.575L13.919 12.602l-1.414 1.414L28.08 29.59l1.414-1.415zM40 21c0 10.493-8.507 19-19 19v2c11.598 0 21-9.402 21-21h-2zM21 40C10.507 40 2 31.493 2 21H0c0 11.598 9.402 21 21 21v-2zM2 21C2 10.507 10.507 2 21 2V0C9.402 0 0 9.402 0 21h2zM21 2c10.493 0 19 8.507 19 19h2C42 9.402 32.598 0 21 0v2z"/>
		</symbol>

		<symbol id="icon-whats-app">
			<rect width="40" height="40" rx="2" fill="#25D366"/><path d="M20 39.204c11.046 0 20-8.552 20-19.102S31.046 1 20 1 0 9.552 0 20.102s8.954 19.102 20 19.102z" fill="#25D366"/><path fill-rule="evenodd" clip-rule="evenodd" d="M20.66 30.73h-.006c-1.99-.001-3.946-.478-5.683-1.383l-6.305 1.58 1.688-5.887a10.949 10.949 0 01-1.588-5.678C8.77 13.099 14.104 8.004 20.66 8.004c3.181.001 6.167 1.184 8.413 3.331 2.245 2.147 3.48 5 3.48 8.036-.003 6.261-5.336 11.356-11.893 11.358zm-5.397-3.439l.361.204a10.224 10.224 0 005.031 1.316h.004c5.448 0 9.883-4.235 9.885-9.44 0-2.523-1.026-4.895-2.893-6.68-1.866-1.784-4.348-2.767-6.988-2.768-5.452 0-9.886 4.235-9.889 9.44 0 1.784.522 3.521 1.512 5.024l.235.357-.999 3.484 3.741-.937zm10.98-5.475c.208.096.348.16.408.256.074.118.074.686-.174 1.35-.247.662-1.434 1.267-2.006 1.349-.511.073-1.16.103-1.871-.113-.432-.13-.985-.305-1.694-.598-2.786-1.148-4.669-3.727-5.024-4.215l-.052-.07-.003-.003c-.157-.2-1.21-1.543-1.21-2.933 0-1.307.672-1.992.981-2.308l.058-.06c.273-.284.595-.355.793-.355a12.366 12.366 0 01.636.011c.173 0 .389-.002.602.486l.328.762c.256.595.538 1.25.588 1.346.074.142.124.308.025.497l-.042.081c-.074.145-.13.252-.255.393-.05.055-.101.114-.153.174a4.795 4.795 0 01-.293.323c-.149.141-.304.295-.13.579.173.284.77 1.213 1.653 1.966.95.81 1.775 1.151 2.193 1.324.082.034.148.061.196.085.297.142.47.118.644-.071.173-.19.743-.829.941-1.113.198-.284.396-.237.669-.142.272.095 1.733.781 2.03.923l.163.076z" fill="#FDFDFD"/>
		</symbol>

		<symbol id="icon-viber">
			<rect width="40" height="40" rx="2" fill="#7F4DA0"/><path d="M20 1c11.046 0 20 8.552 20 19.102s-8.954 19.102-20 19.102S0 30.652 0 20.102 8.954 1 20 1z" fill="#7F4DA0"/><path d="M25.328 17.681c-.097-.755-.34-1.347-.771-1.872-.56-.676-1.276-1.08-2.336-1.321-.69-.16-.97-.142-1.22.076-.232.204-.277.614-.1.879.125.192.27.261.67.336.535.094.904.216 1.24.4.713.393 1.045 1.008 1.08 2.004.017.467.06.611.23.777.317.303.882.244 1.12-.119.089-.136.102-.196.111-.513a4.83 4.83 0 00-.024-.647z" fill="#fff"/><path d="M28.12 18.532c-.14-2.312-1.087-4.173-2.782-5.482-.955-.735-2.109-1.241-3.374-1.487-.463-.088-1.317-.16-1.463-.119a.895.895 0 00-.42.31c-.093.14-.114.453-.035.634.127.303.363.41 1.023.465 1.019.085 2.069.427 2.863.932a5.823 5.823 0 012.092 2.29c.403.796.65 1.942.643 2.969-.002.37.058.58.214.734.236.236.58.287.884.13.336-.169.415-.465.356-1.376zM28.904 26.167c-.039-.11-.13-.28-.196-.377-.414-.596-2.635-2.257-3.745-2.8-.633-.311-1.102-.415-1.45-.317-.374.1-.571.266-1.198 1.01-.252.299-.512.578-.58.622-.171.113-.506.204-.742.204-.548-.003-1.542-.342-2.307-.788-.594-.345-1.355-.964-1.94-1.576-.688-.719-1.158-1.353-1.528-2.069-.48-.92-.601-1.482-.4-1.893.048-.104.114-.213.143-.248.03-.031.338-.273.68-.537.67-.508.778-.625.902-.973.158-.443.115-.895-.128-1.35a18.7 18.7 0 00-1.03-1.586c-.47-.64-1.638-2.009-1.87-2.194-.42-.327-.959-.383-1.553-.163-.627.232-1.801 1.136-2.303 1.767-.453.572-.627.977-.653 1.51-.023.44.016.622.259 1.184C11.165 20 14 23.52 17.895 26.314c2.035 1.46 4.145 2.572 6.333 3.331 1.277.443 1.831.465 2.484.1.276-.156.959-.825 1.34-1.311.63-.81.862-1.184.928-1.482.046-.204.01-.56-.076-.785z" fill="#fff"/><path d="M30.963 19.064a10.122 10.122 0 00-.762-3.578c-.474-1.176-.955-1.944-1.862-2.983-.858-.973-1.524-1.53-2.58-2.148-1.475-.862-3.27-1.433-5.28-1.673-.686-.084-.84-.078-1.051.056-.408.254-.402.888.006 1.138.136.08.256.108.804.177a14.9 14.9 0 012.026.377c2.52.658 4.457 2.003 5.752 3.998 1.084 1.664 1.534 3.328 1.47 5.452-.022.718-.006.845.109 1.017.22.322.8.386 1.098.119.186-.163.22-.285.257-.9.018-.32.021-.794.013-1.052z" fill="#fff"/>
		</symbol>

		<symbol id="icon-stethoscope">
			<g clip-path="url(#clip0)" fill="#8CD14D"><path d="M69.915 39.022A8.167 8.167 0 0063 32.106v-2.122c0-5.851-4.448-10.616-9.916-10.616-5.311 0-9.757 4.62-9.917 10.3h.068l-.068.01V52.67c0 7.35-5.495 13.318-12.25 13.318s-12.25-5.976-12.25-13.318v-1.992c1.692 0 3.5-1.226 3.5-4.666v-2.934C29.654 41.163 35 34.734 35 27.445v-2.433h-2.333l-.049-15.184a5.84 5.84 0 00-4.8-5.71 3.481 3.481 0 10-.079 2.378 3.5 3.5 0 012.542 3.34l.053 15.176H28v2.466a9.277 9.277 0 01-6.716 8.705 10.608 10.608 0 01-6.416 0 9.272 9.272 0 01-6.701-8.704v-2.467h-3.5V9.846a3.5 3.5 0 012.59-3.365 3.516 3.516 0 10-.073-2.37 5.833 5.833 0 00-4.85 5.735v15.166H0v2.427c0 7.297 5.35 13.729 12.833 15.639v2.934c0 3.44 1.808 4.666 3.5 4.666v1.992c0 8.633 6.542 15.652 14.583 15.652 8.042 0 14.583-7.027 14.583-15.652V29.735c.117-4.428 3.521-8.03 7.584-8.03 4.18 0 7.583 3.714 7.583 8.283v2.117a8.166 8.166 0 109.25 6.917zM24.5 6.346a1.167 1.167 0 110-2.334 1.167 1.167 0 010 2.334zm-14-2.333a1.167 1.167 0 110 2.333 1.167 1.167 0 010-2.333zM2.333 27.439v-.093h3.5v.133a11.592 11.592 0 008.328 10.923c2.55.807 5.287.807 7.837 0a11.594 11.594 0 008.335-10.924v-.133h2.333v.094c0 6.49-5.002 12.2-11.9 13.582-1.62.324-3.278.406-4.922.242a15.253 15.253 0 01-1.61-.244c-6.898-1.38-11.9-7.09-11.9-13.58zm14 20.906c-1.05 0-1.167-1.633-1.167-2.333v-2.476c.094.012.19.017.284.026.117.013.233.022.35.033.552.049 1.108.081 1.67.082h.058c.56 0 1.115-.033 1.663-.082.117-.01.24-.02.36-.033.093-.01.189-.014.28-.026v2.476c0 .7-.116 2.333-1.166 2.333h-2.332zm45.5-2.333a5.833 5.833 0 115.833-5.833 5.84 5.84 0 01-5.834 5.833z"/><path d="M61.833 36.679a3.5 3.5 0 100 7 3.5 3.5 0 000-7zm0 4.666a1.167 1.167 0 110-2.333 1.167 1.167 0 010 2.333z"/></g><defs><clipPath id="clip0"><path fill="#fff" d="M0 0h70v70H0z"/></clipPath></defs>
		</symbol>

		<symbol id="icon-">

		</symbol>
</svg>
